# xmcd
#
# Track frame offsets: 
#        150
#        20697
#        43360
#        65717
#        87350
#        109050
#        125957
#        146710
#        166922
#        184117
#
# Disc length: 3441 seconds
#
# Revision: 0
# Processed by: cddbd v1.5.2PL0 Copyright (c) Steve Scherf et al.
# Submitted via: ExactAudioCopyFreeDBPlugin 1.0
#
DISCID=990d6f0a
DTITLE=Ochi Brothers - Beating The Earth
DYEAR=2001
DGENRE=Tribal
TTITLE0=Nugung
TTITLE1=Beating The Earth
TTITLE2=Blue Forest
TTITLE3=Talking Future
TTITLE4=Brilliant Dance
TTITLE5=Wild Sight
TTITLE6=Shadows Of Charango 2
TTITLE7=Hypnotic Heights
TTITLE8=Lambent Blaze
TTITLE9=Poly-Kogiri
EXTD=
EXTT0=
EXTT1=
EXTT2=
EXTT3=
EXTT4=
EXTT5=
EXTT6=
EXTT7=
EXTT8=
EXTT9=
PLAYORDER=
